REM DIRINDEX 1\2,1\3,1\4
REM DIRNAME cjc064,folder01,folder02,folder03
TITLE ""
FILE "Disk2Track68.mp3" MP3
  TRACK 01 AUDIO
    TITLE "2:cjc064_2021"
    INDEX 01 00:00:00
  TRACK 02 AUDIO
    TITLE "4:cjc064_2022"
    INDEX 01 00:02:55
  TRACK 03 AUDIO
    TITLE "4:cjc064_2023"
    INDEX 01 00:05:28
  TRACK 04 AUDIO
    TITLE "4:cjc064_2024"
    INDEX 01 00:10:66
  TRACK 05 AUDIO
    TITLE "0:"
    INDEX 01 00:15:52
